# xmcd
#
# Track frame offsets: 
#        150
#        11865
#        26925
#        40418
#        53300
#        68332
#        81369
#        91957
#        102896
#        113385
#        123884
#        134432
#        146392
#
# Disc length: 2134 seconds
#
# Revision: 0
# Processed by: cddbd v1.5.2PL0 Copyright (c) Steve Scherf et al.
# Submitted via: ExactAudioCopy v0.99pb4
#
DISCID=a008540d
DTITLE=George Jones and Tammy Wynette - The Very Best of George Jones and 
DTITLE=Tammy Wynette
DYEAR=1996
DGENRE=Classic Country
TTITLE0=It's an Old Love Thing
TTITLE1=All I Have to Offer You is Me
TTITLE2=Golden Ring
TTITLE3=Let's Build a World Together
TTITLE4=The World Needs a Melody
TTITLE5=We're Gonna Hold On
TTITLE6=After the Fire is Gone
TTITLE7=We Go Together
TTITLE8=Take me
TTITLE9=Never Ending Song of Love
TTITLE10=Near You
TTITLE11=Two Story House
TTITLE12=The Ceremony
EXTD=
EXTT0=
EXTT1=
EXTT2=
EXTT3=
EXTT4=
EXTT5=
EXTT6=
EXTT7=
EXTT8=
EXTT9=
EXTT10=
EXTT11=
EXTT12=
PLAYORDER=
